<svg width="26" height="28" viewBox="0 0 26 28" fill="none" xmlns="http://www.w3.org/2000/svg">
<path fill-rule="evenodd" clip-rule="evenodd" d="M18.1543 0C22.5758 0 25.546 3.02782 25.546 7.5337V20.4663C25.546 25.0116 22.6672 27.9677 18.212 27.9958L7.39307 28C2.97157 28 0 24.9722 0 20.4663V7.5337C0 2.98704 2.87875 0.0323456 7.334 0.00562531L18.1529 0H18.1543ZM18.1543 2.10949L7.34103 2.11512C4.0671 2.13481 2.10949 4.15992 2.10949 7.5337V20.4663C2.10949 23.8626 4.08538 25.8905 7.39166 25.8905L18.2049 25.8863C21.4789 25.8666 23.4365 23.8387 23.4365 20.4663V7.5337C23.4365 4.13742 21.462 2.10949 18.1543 2.10949ZM17.883 18.9484C18.4652 18.9484 18.9378 19.421 18.9378 20.0032C18.9378 20.5854 18.4652 21.0579 17.883 21.0579H7.72932C7.1471 21.0579 6.67458 20.5854 6.67458 20.0032C6.67458 19.421 7.1471 18.9484 7.72932 18.9484H17.883ZM17.883 13.0609C18.4652 13.0609 18.9378 13.5334 18.9378 14.1156C18.9378 14.6978 18.4652 15.1703 17.883 15.1703H7.72932C7.1471 15.1703 6.67458 14.6978 6.67458 14.1156C6.67458 13.5334 7.1471 13.0609 7.72932 13.0609H17.883ZM11.6033 7.1869C12.1856 7.1869 12.6581 7.65943 12.6581 8.24165C12.6581 8.82387 12.1856 9.29639 11.6033 9.29639H7.7289C7.14668 9.29639 6.67415 8.82387 6.67415 8.24165C6.67415 7.65943 7.14668 7.1869 7.7289 7.1869H11.6033Z" fill="#35A3E6"/>
</svg>
