<svg width="548" height="382" viewBox="0 0 548 382" fill="none" xmlns="http://www.w3.org/2000/svg">
<g clip-path="url(#clip0_127:2)">
<path d="M527.63 324.769C526.13 324.769 524.63 324.394 523.256 323.644L508.634 315.147C507.759 314.647 507.259 313.772 507.259 312.773C507.259 311.773 507.759 310.898 508.634 310.398L523.256 301.901C525.88 300.402 529.254 300.402 532.004 301.901L546.625 310.398C547.5 310.898 548 311.773 548 312.773C548 313.772 547.5 314.647 546.625 315.147L532.004 323.644C530.629 324.394 529.129 324.769 527.63 324.769ZM527.63 303.151C526.505 303.151 525.38 303.401 524.38 304.026L509.759 312.523C509.634 312.648 509.509 312.773 509.509 312.898C509.509 313.023 509.509 313.148 509.759 313.272L524.38 321.77C526.38 322.894 528.754 322.894 530.754 321.77L545.376 313.272C545.501 313.148 545.626 313.023 545.626 312.898C545.626 312.773 545.626 312.648 545.376 312.523L530.754 304.026C529.754 303.401 528.754 303.151 527.63 303.151Z" fill="url(#paint0_linear_127:2)"/>
<path d="M485.639 276.659C483.14 276.659 480.765 276.035 478.516 274.785L453.272 260.165C452.022 259.415 451.397 258.29 451.397 256.791C451.397 255.416 452.147 254.167 453.272 253.417L478.516 238.797C482.89 236.298 488.264 236.298 492.638 238.797L517.882 253.417C519.132 254.167 519.756 255.291 519.756 256.791C519.756 258.166 519.007 259.415 517.882 260.165L492.638 274.785C490.513 276.035 488.139 276.659 485.639 276.659ZM479.766 272.786C483.39 274.91 487.889 274.91 491.638 272.786L516.882 258.166C517.507 257.791 517.632 257.166 517.632 256.916C517.632 256.666 517.507 256.041 516.882 255.666L491.638 241.046C488.014 238.922 483.515 238.922 479.766 241.046L454.521 255.666C453.896 256.041 453.771 256.666 453.771 256.916C453.771 257.166 453.896 257.791 454.521 258.166L479.766 272.786Z" fill="url(#paint1_linear_127:2)"/>
<path d="M34.2422 299.652C31.7428 299.652 29.3683 299.027 27.1188 297.778L1.87457 283.157C0.624857 282.408 0 281.283 0 279.783C0 278.409 0.749829 277.159 1.87457 276.41L27.1188 261.789C31.4928 259.29 36.8666 259.29 41.2406 261.789L66.4848 276.41C67.7345 277.159 68.3594 278.284 68.3594 279.783C68.3594 281.158 67.6096 282.408 66.4848 283.157L41.2406 297.778C39.1161 299.027 36.6166 299.652 34.2422 299.652ZM34.2422 262.414C32.2426 262.414 30.1181 262.914 28.3685 264.039L3.12429 278.534C2.49943 278.909 2.37446 279.534 2.37446 279.783C2.37446 280.033 2.49943 280.658 3.12429 281.033L28.3685 295.653C31.9927 297.778 36.4917 297.778 40.2408 295.653L65.3601 281.158C65.9849 280.783 66.1099 280.158 66.1099 279.908C66.1099 279.658 65.9849 279.034 65.3601 278.659L40.1158 264.039C38.3662 262.914 36.2417 262.414 34.2422 262.414Z" fill="url(#paint2_linear_127:2)"/>
<path opacity="0.6" d="M289.809 363.131L109.35 259.04C106.726 257.541 107.101 254.917 110.1 253.167L225.948 186.314C228.948 184.565 233.572 184.315 236.196 185.939L416.655 289.905C419.279 291.405 418.904 294.029 415.905 295.778L300.057 362.631C297.057 364.506 292.433 364.756 289.809 363.131Z" fill="#020230"/>
<path d="M293.933 382C291.808 382 289.809 381.5 288.309 380.625L82.3562 261.789C80.7316 260.79 79.7318 259.415 79.7318 257.791C79.7318 256.041 80.9815 254.167 83.231 252.917L223.699 170.694C227.573 168.445 233.197 168.195 236.571 170.194L442.399 289.155C444.024 290.155 445.023 291.53 445.023 293.154C445.023 294.904 443.774 296.778 441.524 298.027L301.181 380.126C299.057 381.375 296.432 382 293.933 382ZM230.822 171.194C228.698 171.194 226.448 171.694 224.699 172.693L84.3558 255.042C82.8561 255.916 82.1063 256.916 82.1063 257.916C82.1063 258.79 82.8561 259.415 83.6059 259.79L289.434 378.626C292.058 380.126 296.932 379.876 299.932 378.126L440.4 295.903C441.899 295.028 442.649 294.029 442.649 293.029C442.649 292.154 441.899 291.53 441.149 291.155L235.196 172.194C234.072 171.569 232.447 171.194 230.822 171.194Z" fill="url(#paint3_linear_127:2)"/>
<path d="M464.644 115.337L284.81 11.4962C283.56 10.7465 282.311 10.6215 281.186 10.9964L277.812 12.121L278.936 12.3709C278.436 12.8708 278.062 13.6205 277.812 14.3703L237.196 146.327C236.196 149.576 237.696 153.575 240.445 155.199L420.279 259.04C420.654 259.29 421.154 259.415 421.654 259.54L421.154 260.54L424.278 259.415C425.528 258.915 426.653 257.791 427.153 256.041L467.768 124.084C468.893 120.835 467.518 116.962 464.644 115.337Z" fill="url(#paint4_radial_127:2)"/>
<path d="M413.906 264.039L236.446 161.572C233.822 160.073 229.323 160.198 226.198 161.947L111.475 228.175L107.6 226.676L108.725 232.049C108.85 232.799 109.475 233.674 110.475 234.173L289.684 337.64C292.308 339.139 296.807 339.014 299.932 337.265L414.905 270.911C416.28 270.037 417.155 269.037 417.405 268.037L418.53 262.789L413.906 264.039Z" fill="url(#paint5_radial_127:2)"/>
<path d="M289.809 333.016L109.35 228.925C106.726 227.426 107.101 224.801 110.1 223.052L225.948 156.199C228.948 154.449 233.572 154.2 236.196 155.824L416.655 260.04C419.279 261.539 418.904 264.164 415.905 265.913L300.057 332.766C297.057 334.391 292.433 334.64 289.809 333.016Z" fill="url(#paint6_radial_127:2)"/>
<path d="M415.905 264.413L300.057 331.267C297.057 333.016 292.433 333.266 289.809 331.641L109.35 227.426C108.475 226.926 107.975 226.301 107.725 225.551C107.351 226.801 107.85 227.925 109.35 228.8L289.809 333.016C292.433 334.516 297.057 334.391 300.057 332.641L415.905 265.788C417.905 264.663 418.655 263.039 418.28 261.789C418.03 262.664 417.28 263.539 415.905 264.413Z" fill="white"/>
<g opacity="0.4">
<path opacity="0.4" d="M195.455 211.931L189.332 208.432C188.832 208.182 188.957 207.682 189.457 207.307L196.705 203.183C197.33 202.809 198.08 202.809 198.58 203.059L204.703 206.557C205.203 206.807 205.078 207.307 204.578 207.682L197.33 211.806C196.83 212.181 195.955 212.181 195.455 211.931Z" fill="#06033E"/>
<path opacity="0.4" d="M204.828 217.429L198.705 213.93C198.205 213.68 198.33 213.18 198.83 212.805L206.078 208.682C206.703 208.307 207.453 208.307 207.953 208.557L214.076 212.056C214.576 212.306 214.451 212.805 213.951 213.18L206.703 217.304C206.203 217.679 205.328 217.679 204.828 217.429Z" fill="#06033E"/>
<path opacity="0.4" d="M214.326 222.802L208.203 219.303C207.703 219.053 207.828 218.553 208.327 218.179L215.576 214.055C216.201 213.68 216.951 213.68 217.45 213.93L223.574 217.429C224.074 217.679 223.949 218.179 223.449 218.553L216.201 222.677C215.576 223.052 214.701 223.052 214.326 222.802Z" fill="#06033E"/>
<path opacity="0.4" d="M227.323 218.304L221.2 214.805C220.7 214.555 220.825 214.055 221.324 213.68L227.323 210.181C227.948 209.806 228.698 209.806 229.198 210.056L235.321 213.555C235.821 213.805 235.696 214.305 235.196 214.68L229.198 218.179C228.573 218.553 227.823 218.678 227.323 218.304Z" fill="#06033E"/>
<path opacity="0.4" d="M236.696 223.802L230.572 220.303C230.072 220.053 230.197 219.553 230.697 219.178L236.696 215.679C237.321 215.305 238.071 215.305 238.571 215.554L244.694 219.053C245.194 219.303 245.069 219.803 244.569 220.178L238.571 223.677C238.071 224.052 237.196 224.052 236.696 223.802Z" fill="#06033E"/>
<path opacity="0.4" d="M246.069 229.175L239.945 225.676C239.445 225.426 239.57 224.926 240.07 224.551L246.069 221.053C246.694 220.678 247.444 220.678 247.943 220.928L254.067 224.427C254.567 224.676 254.442 225.176 253.942 225.551L247.943 229.05C247.444 229.425 246.569 229.425 246.069 229.175Z" fill="#06033E"/>
<path opacity="0.4" d="M255.567 234.673L249.443 231.174C248.943 230.924 249.068 230.425 249.568 230.05L255.567 226.551C256.192 226.176 256.941 226.176 257.441 226.426L263.565 229.925C264.065 230.175 263.94 230.674 263.44 231.049L257.441 234.548C256.816 234.923 256.067 234.923 255.567 234.673Z" fill="#06033E"/>
<path opacity="0.4" d="M264.94 240.046L258.816 236.548C258.316 236.298 258.441 235.798 258.941 235.423L264.94 231.924C265.564 231.549 266.314 231.549 266.814 231.799L272.938 235.298C273.438 235.548 273.313 236.048 272.813 236.423L266.814 239.921C266.314 240.296 265.439 240.296 264.94 240.046Z" fill="#06033E"/>
<path opacity="0.4" d="M274.312 245.545L268.189 242.046C267.689 241.796 267.814 241.296 268.314 240.921L274.312 237.422C274.937 237.047 275.687 237.047 276.187 237.297L282.311 240.796C282.811 241.046 282.686 241.546 282.186 241.921L276.187 245.42C275.687 245.795 274.812 245.795 274.312 245.545Z" fill="#06033E"/>
<path opacity="0.4" d="M283.81 250.918L277.687 247.419C277.187 247.169 277.312 246.669 277.812 246.294L283.81 242.796C284.435 242.421 285.185 242.421 285.685 242.671L291.808 246.169C292.308 246.419 292.183 246.919 291.683 247.294L285.685 250.793C285.06 251.168 284.185 251.168 283.81 250.918Z" fill="#06033E"/>
<path opacity="0.4" d="M293.183 256.416L287.059 252.917C286.56 252.667 286.685 252.167 287.184 251.793L293.183 248.294C293.808 247.919 294.558 247.919 295.058 248.169L301.181 251.668C301.681 251.918 301.556 252.417 301.056 252.792L295.058 256.291C294.558 256.666 293.683 256.666 293.183 256.416Z" fill="#06033E"/>
<path opacity="0.4" d="M302.556 261.789L296.432 258.29C295.932 258.041 296.057 257.541 296.557 257.166L302.556 253.667C303.181 253.292 303.931 253.292 304.431 253.542L310.554 257.041C311.054 257.291 310.929 257.791 310.429 258.166L304.431 261.664C303.931 262.039 303.056 262.039 302.556 261.789Z" fill="#06033E"/>
<path opacity="0.4" d="M311.929 267.288L305.805 263.789C305.305 263.539 305.43 263.039 305.93 262.664L311.929 259.165C312.554 258.79 313.303 258.79 313.803 259.04L319.927 262.539C320.427 262.789 320.302 263.289 319.802 263.664L313.803 267.163C313.303 267.537 312.429 267.537 311.929 267.288Z" fill="#06033E"/>
<path opacity="0.4" d="M241.195 215.804L235.071 212.306C234.571 212.056 234.696 211.556 235.196 211.181L241.195 207.682C241.82 207.307 242.57 207.307 243.07 207.557L249.193 211.056C249.693 211.306 249.568 211.806 249.068 212.181L243.07 215.679C242.445 216.054 241.695 216.054 241.195 215.804Z" fill="#06033E"/>
<path opacity="0.4" d="M231.572 210.306L225.449 206.807C224.949 206.557 225.074 206.058 225.574 205.683L231.572 202.184C232.197 201.809 232.947 201.809 233.447 202.059L239.57 205.558C240.07 205.808 239.945 206.307 239.445 206.682L233.447 210.181C232.947 210.556 232.072 210.556 231.572 210.306Z" fill="#06033E"/>
<path opacity="0.4" d="M222.074 204.683L208.952 197.061C208.452 196.811 208.577 196.311 209.077 195.936L215.076 192.437C215.701 192.062 216.451 192.062 216.951 192.312L230.073 199.935C230.572 200.184 230.447 200.684 229.948 201.059L223.949 204.558C223.324 204.933 222.574 205.058 222.074 204.683Z" fill="#06033E"/>
<path opacity="0.4" d="M228.698 198.06L218.075 191.937C217.575 191.687 217.7 191.187 218.2 190.813L224.199 187.314C224.824 186.939 225.574 186.939 226.073 187.189L236.696 193.312C237.196 193.562 237.071 194.061 236.571 194.436L230.572 197.935C230.073 198.31 229.198 198.31 228.698 198.06Z" fill="#06033E"/>
<path opacity="0.4" d="M250.568 221.178L244.444 217.679C243.944 217.429 244.069 216.929 244.569 216.554L250.568 213.055C251.193 212.68 251.942 212.68 252.442 212.93L258.566 216.429C259.066 216.679 258.941 217.179 258.441 217.554L252.442 221.178C251.942 221.428 251.068 221.428 250.568 221.178Z" fill="#06033E"/>
<path opacity="0.4" d="M259.941 226.676L253.817 223.177C253.317 222.927 253.442 222.427 253.942 222.052L259.941 218.553C260.566 218.179 261.315 218.179 261.815 218.429L267.939 221.927C268.439 222.177 268.314 222.677 267.814 223.052L261.815 226.551C261.315 226.926 260.441 226.926 259.941 226.676Z" fill="#06033E"/>
<path opacity="0.4" d="M269.439 232.049L263.315 228.55C262.815 228.3 262.94 227.8 263.44 227.426L269.439 223.927C270.063 223.552 270.813 223.552 271.313 223.802L277.437 227.301C277.937 227.551 277.812 228.05 277.312 228.425L271.313 231.924C270.688 232.299 269.813 232.299 269.439 232.049Z" fill="#06033E"/>
<path opacity="0.4" d="M278.811 237.547L272.688 234.048C272.188 233.798 272.313 233.299 272.813 232.924L278.811 229.425C279.436 229.05 280.186 229.05 280.686 229.3L286.81 232.799C287.309 233.049 287.184 233.549 286.685 233.923L280.686 237.422C280.186 237.797 279.311 237.797 278.811 237.547Z" fill="#06033E"/>
<path opacity="0.4" d="M288.184 242.92L282.061 239.422C281.561 239.172 281.686 238.672 282.186 238.297L288.184 234.798C288.809 234.423 289.559 234.423 290.059 234.673L296.182 238.172C296.682 238.422 296.557 238.922 296.057 239.297L290.059 242.796C289.559 243.17 288.684 243.17 288.184 242.92Z" fill="#06033E"/>
<path opacity="0.4" d="M297.557 248.419L291.433 244.92C290.934 244.67 291.059 244.17 291.558 243.795L297.557 240.296C298.182 239.921 298.932 239.921 299.432 240.171L305.555 243.67C306.055 243.92 305.93 244.42 305.43 244.795L299.432 248.294C298.932 248.669 298.057 248.669 297.557 248.419Z" fill="#06033E"/>
<path opacity="0.4" d="M307.055 253.792L300.931 250.293C300.431 250.043 300.556 249.543 301.056 249.168L307.055 245.67C307.68 245.295 308.43 245.295 308.929 245.545L315.053 249.044C315.553 249.293 315.428 249.793 314.928 250.168L308.929 253.667C308.43 254.042 307.555 254.042 307.055 253.792Z" fill="#06033E"/>
<path opacity="0.4" d="M316.428 259.165L310.304 255.666C309.804 255.416 309.929 254.917 310.429 254.542L316.428 251.043C317.053 250.668 317.802 250.668 318.302 250.918L324.426 254.417C324.926 254.667 324.801 255.167 324.301 255.541L318.302 259.04C317.802 259.415 316.928 259.54 316.428 259.165Z" fill="#06033E"/>
<path opacity="0.4" d="M325.801 264.663L319.677 261.165C319.177 260.915 319.302 260.415 319.802 260.04L325.801 256.541C326.425 256.166 327.175 256.166 327.675 256.416L333.799 259.915C334.299 260.165 334.174 260.665 333.674 261.04L327.675 264.538C327.175 264.913 326.301 264.913 325.801 264.663Z" fill="#06033E"/>
<path opacity="0.4" d="M342.547 274.285L329.3 266.663C328.8 266.413 328.925 265.913 329.425 265.538L335.423 262.039C336.048 261.664 336.798 261.664 337.298 261.914L350.545 269.537C351.045 269.787 350.92 270.287 350.42 270.661L344.421 274.16C343.922 274.535 343.047 274.66 342.547 274.285Z" fill="#06033E"/>
<path opacity="0.4" d="M360.918 263.789L349.67 257.291C349.17 257.041 349.295 256.541 349.795 256.166L355.794 252.667C356.419 252.292 357.168 252.292 357.668 252.542L368.916 259.04C369.416 259.29 369.291 259.79 368.791 260.165L362.792 263.664C362.292 264.039 361.417 264.039 360.918 263.789Z" fill="#06033E"/>
<path opacity="0.4" d="M267.064 220.178L260.94 216.679C260.441 216.429 260.565 215.929 261.065 215.554L267.064 212.056C267.689 211.681 268.439 211.681 268.939 211.931L275.062 215.429C275.562 215.679 275.437 216.179 274.937 216.554L268.939 220.053C268.439 220.428 267.564 220.428 267.064 220.178Z" fill="#06033E"/>
<path opacity="0.4" d="M257.441 214.555L251.318 211.056C250.818 210.806 250.943 210.306 251.443 209.931L257.441 206.432C258.066 206.058 258.816 206.058 259.316 206.307L265.439 209.806C265.939 210.056 265.814 210.556 265.314 210.931L259.316 214.43C258.691 214.805 257.941 214.805 257.441 214.555Z" fill="#06033E"/>
<path opacity="0.4" d="M247.693 209.057L241.57 205.558C241.07 205.308 241.195 204.808 241.695 204.433L247.693 200.934C248.318 200.559 249.068 200.559 249.568 200.809L255.692 204.308C256.192 204.558 256.067 205.058 255.567 205.433L249.568 208.932C249.068 209.306 248.193 209.307 247.693 209.057Z" fill="#06033E"/>
<path opacity="0.4" d="M238.071 203.433L231.947 199.935C231.447 199.685 231.572 199.185 232.072 198.81L238.071 195.311C238.696 194.936 239.445 194.936 239.945 195.186L246.069 198.685C246.569 198.935 246.444 199.435 245.944 199.81L239.945 203.308C239.445 203.683 238.571 203.683 238.071 203.433Z" fill="#06033E"/>
<path opacity="0.4" d="M276.437 225.551L270.313 222.052C269.813 221.802 269.938 221.303 270.438 220.928L276.437 217.429C277.062 217.054 277.812 217.054 278.311 217.304L284.435 220.803C284.935 221.053 284.81 221.552 284.31 221.927L278.311 225.426C277.812 225.801 276.937 225.801 276.437 225.551Z" fill="#06033E"/>
<path opacity="0.4" d="M285.81 231.049L279.686 227.551C279.186 227.301 279.311 226.801 279.811 226.426L285.81 222.927C286.435 222.552 287.184 222.552 287.684 222.802L293.808 226.301C294.308 226.551 294.183 227.051 293.683 227.426L287.684 230.924C287.184 231.299 286.31 231.299 285.81 231.049Z" fill="#06033E"/>
<path opacity="0.4" d="M295.308 236.423L289.184 232.924C288.684 232.674 288.809 232.174 289.309 231.799L295.308 228.3C295.932 227.925 296.682 227.925 297.182 228.175L303.306 231.674C303.806 231.924 303.681 232.424 303.181 232.799L297.182 236.298C296.682 236.673 295.807 236.673 295.308 236.423Z" fill="#06033E"/>
<path opacity="0.4" d="M304.68 241.921L298.557 238.422C298.057 238.172 298.182 237.672 298.682 237.297L304.68 233.798C305.305 233.424 306.055 233.424 306.555 233.674L312.679 237.172C313.179 237.422 313.054 237.922 312.554 238.297L306.555 241.796C306.055 242.171 305.18 242.171 304.68 241.921Z" fill="#06033E"/>
<path opacity="0.4" d="M314.053 247.294L307.93 243.795C307.43 243.545 307.555 243.045 308.055 242.671L314.053 239.172C314.678 238.797 315.428 238.797 315.928 239.047L322.052 242.546C322.551 242.796 322.426 243.295 321.927 243.67L315.928 247.169C315.428 247.544 314.553 247.544 314.053 247.294Z" fill="#06033E"/>
<path opacity="0.4" d="M323.551 252.667L317.428 249.168C316.928 248.919 317.053 248.419 317.553 248.044L323.551 244.545C324.176 244.17 324.926 244.17 325.426 244.42L331.549 247.919C332.049 248.169 331.924 248.669 331.424 249.044L325.426 252.542C324.801 252.917 324.051 253.042 323.551 252.667Z" fill="#06033E"/>
<path opacity="0.4" d="M332.924 258.166L326.8 254.667C326.301 254.417 326.425 253.917 326.925 253.542L332.924 250.043C333.549 249.668 334.299 249.668 334.799 249.918L340.922 253.417C341.422 253.667 341.297 254.167 340.797 254.542L334.799 258.041C334.299 258.415 333.424 258.415 332.924 258.166Z" fill="#06033E"/>
<path opacity="0.4" d="M342.297 263.539L336.173 260.04C335.673 259.79 335.798 259.29 336.298 258.915L342.297 255.416C342.922 255.042 343.672 255.042 344.171 255.291L350.295 258.79C350.795 259.04 350.67 259.54 350.17 259.915L344.171 263.414C343.672 263.789 342.797 263.914 342.297 263.539Z" fill="#06033E"/>
<path opacity="0.4" d="M351.795 269.037L345.671 265.538C345.171 265.288 345.296 264.788 345.796 264.413L351.795 260.915C352.42 260.54 353.169 260.54 353.669 260.79L359.793 264.289C360.293 264.538 360.168 265.038 359.668 265.413L353.669 268.912C353.044 269.287 352.17 269.287 351.795 269.037Z" fill="#06033E"/>
<path opacity="0.4" d="M262.065 206.682L255.942 203.184C255.442 202.934 255.567 202.434 256.067 202.059L262.065 198.56C262.69 198.185 263.44 198.185 263.94 198.435L270.063 201.934C270.563 202.184 270.438 202.684 269.938 203.059L263.94 206.557C263.44 206.932 262.565 206.932 262.065 206.682Z" fill="#06033E"/>
<path opacity="0.4" d="M252.692 201.309L246.569 197.81C246.069 197.56 246.194 197.06 246.694 196.686L252.692 193.187C253.317 192.812 254.067 192.812 254.567 193.062L260.691 196.561C261.19 196.811 261.065 197.31 260.566 197.685L254.567 201.184C254.067 201.559 253.192 201.559 252.692 201.309Z" fill="#06033E"/>
<path opacity="0.4" d="M243.319 195.936L237.196 192.437C236.696 192.187 236.821 191.687 237.321 191.312L243.319 187.814C243.944 187.439 244.694 187.439 245.194 187.689L251.318 191.187C251.818 191.437 251.693 191.937 251.193 192.312L245.194 195.811C244.694 196.186 243.819 196.186 243.319 195.936Z" fill="#06033E"/>
<path opacity="0.4" d="M233.947 190.438L227.823 186.939C227.323 186.689 227.448 186.189 227.948 185.814L233.947 182.315C234.571 181.94 235.321 181.94 235.821 182.19L241.945 185.689C242.445 185.939 242.32 186.439 241.82 186.814L235.821 190.313C235.321 190.688 234.446 190.813 233.947 190.438Z" fill="#06033E"/>
<path opacity="0.4" d="M243.569 184.939L237.446 181.441C236.946 181.191 237.071 180.691 237.571 180.316L239.57 179.191C240.195 178.816 240.945 178.816 241.445 179.066L247.568 182.565C248.068 182.815 247.943 183.315 247.444 183.69L245.444 184.815C244.944 185.189 244.069 185.189 243.569 184.939Z" fill="#06033E"/>
<path opacity="0.4" d="M255.817 191.937L249.693 188.438C249.193 188.188 249.318 187.689 249.818 187.314L251.818 186.189C252.442 185.814 253.192 185.814 253.692 186.064L259.816 189.563C260.316 189.813 260.191 190.313 259.691 190.688L257.691 191.812C257.191 192.187 256.317 192.312 255.817 191.937Z" fill="#06033E"/>
<path opacity="0.4" d="M265.189 197.31L259.066 193.812C258.566 193.562 258.691 193.062 259.191 192.687L261.19 191.562C261.815 191.187 262.565 191.187 263.065 191.437L269.189 194.936C269.688 195.186 269.563 195.686 269.064 196.061L267.064 197.185C266.564 197.56 265.689 197.685 265.189 197.31Z" fill="#06033E"/>
<path opacity="0.4" d="M274.437 202.684L268.314 199.185C267.814 198.935 267.939 198.435 268.439 198.06L270.438 196.936C271.063 196.561 271.813 196.561 272.313 196.811L278.436 200.309C278.936 200.559 278.811 201.059 278.311 201.434L276.312 202.559C275.812 202.934 274.937 203.059 274.437 202.684Z" fill="#06033E"/>
<path opacity="0.4" d="M283.81 208.182L277.687 204.683C277.187 204.433 277.312 203.933 277.812 203.558L279.811 202.434C280.436 202.059 281.186 202.059 281.686 202.309L287.809 205.808C288.309 206.058 288.184 206.557 287.684 206.932L285.685 208.057C285.185 208.432 284.31 208.432 283.81 208.182Z" fill="#06033E"/>
<path opacity="0.4" d="M335.923 238.172L329.8 234.673C329.3 234.423 329.425 233.923 329.925 233.549L331.924 232.424C332.549 232.049 333.299 232.049 333.799 232.299L339.922 235.798C340.422 236.048 340.297 236.548 339.797 236.922L337.798 238.047C337.173 238.422 336.423 238.422 335.923 238.172Z" fill="#06033E"/>
<path opacity="0.4" d="M345.171 243.545L339.048 240.046C338.548 239.797 338.673 239.297 339.173 238.922L341.172 237.797C341.797 237.422 342.547 237.422 343.047 237.672L349.17 241.171C349.67 241.421 349.545 241.921 349.045 242.296L347.046 243.42C346.546 243.795 345.671 243.795 345.171 243.545Z" fill="#06033E"/>
<path opacity="0.4" d="M354.544 248.919L348.421 245.42C347.921 245.17 348.046 244.67 348.545 244.295L350.545 243.17C351.17 242.796 351.92 242.796 352.42 243.045L358.543 246.544C359.043 246.794 358.918 247.294 358.418 247.669L356.419 248.794C355.919 249.168 355.044 249.168 354.544 248.919Z" fill="#06033E"/>
<path opacity="0.4" d="M363.917 254.292L357.793 250.793C357.293 250.543 357.418 250.043 357.918 249.668L359.918 248.544C360.543 248.169 361.293 248.169 361.792 248.419L367.916 251.918C368.416 252.167 368.291 252.667 367.791 253.042L365.792 254.167C365.167 254.542 364.292 254.667 363.917 254.292Z" fill="#06033E"/>
<path opacity="0.4" d="M271.438 212.181L265.314 208.682C264.815 208.432 264.94 207.932 265.439 207.557L271.438 204.058C272.063 203.683 272.813 203.683 273.313 203.933L279.436 207.432C279.936 207.682 279.811 208.182 279.311 208.557L273.313 212.056C272.813 212.43 271.938 212.43 271.438 212.181Z" fill="#06033E"/>
<path opacity="0.4" d="M280.936 217.554L274.812 214.055C274.312 213.805 274.437 213.305 274.937 212.93L280.936 209.431C281.561 209.057 282.311 209.057 282.81 209.306L288.934 212.805C289.434 213.055 289.309 213.555 288.809 213.93L282.81 217.429C282.311 217.804 281.436 217.804 280.936 217.554Z" fill="#06033E"/>
<path opacity="0.4" d="M290.309 223.052L284.185 219.553C283.685 219.303 283.81 218.803 284.31 218.429L290.309 214.93C290.934 214.555 291.683 214.555 292.183 214.805L298.307 218.304C298.807 218.553 298.682 219.053 298.182 219.428L292.183 222.927C291.683 223.302 290.809 223.302 290.309 223.052Z" fill="#06033E"/>
<path opacity="0.4" d="M299.682 228.425L293.683 224.926C293.183 224.676 293.308 224.177 293.808 223.802L299.807 220.303C300.431 219.928 301.181 219.928 301.681 220.178L307.805 223.677C308.305 223.927 308.18 224.427 307.68 224.801L301.681 228.3C301.056 228.675 300.181 228.675 299.682 228.425Z" fill="#06033E"/>
<path opacity="0.4" d="M309.179 233.798L303.056 230.3C302.556 230.05 302.681 229.55 303.181 229.175L309.179 225.676C309.804 225.301 310.554 225.301 311.054 225.551L317.178 229.05C317.678 229.3 317.553 229.8 317.053 230.175L311.054 233.674C310.429 234.048 309.679 234.173 309.179 233.798Z" fill="#06033E"/>
<path opacity="0.4" d="M318.552 239.297L312.429 235.798C311.929 235.548 312.054 235.048 312.554 234.673L318.552 231.174C319.177 230.799 319.927 230.799 320.427 231.049L326.55 234.548C327.05 234.798 326.925 235.298 326.426 235.673L320.427 239.172C319.927 239.547 319.052 239.547 318.552 239.297Z" fill="#06033E"/>
<path opacity="0.4" d="M327.925 244.67L321.802 241.171C321.302 240.921 321.427 240.421 321.927 240.046L327.925 236.548C328.55 236.173 329.3 236.173 329.8 236.423L335.923 239.921C336.423 240.171 336.298 240.671 335.798 241.046L329.8 244.545C329.3 244.92 328.425 245.045 327.925 244.67Z" fill="#06033E"/>
<path opacity="0.4" d="M337.423 250.168L331.299 246.669C330.8 246.419 330.925 245.92 331.424 245.545L337.423 242.046C338.048 241.671 338.798 241.671 339.298 241.921L345.421 245.42C345.921 245.67 345.796 246.169 345.296 246.544L339.298 250.043C338.673 250.418 337.923 250.418 337.423 250.168Z" fill="#06033E"/>
<path opacity="0.4" d="M346.796 255.541L340.672 252.043C340.172 251.793 340.297 251.293 340.797 250.918L346.796 247.419C347.421 247.044 348.171 247.044 348.67 247.294L354.794 250.793C355.294 251.043 355.169 251.543 354.669 251.918L348.67 255.416C348.171 255.791 347.296 255.916 346.796 255.541Z" fill="#06033E"/>
<path opacity="0.4" d="M217.7 212.805L199.704 202.434C199.205 202.184 199.329 201.684 199.829 201.309L205.828 197.81C206.453 197.435 207.203 197.435 207.703 197.685L225.698 208.057C226.198 208.307 226.073 208.807 225.573 209.182L219.575 212.68C219.075 213.055 218.2 213.055 217.7 212.805Z" fill="#06033E"/>
<path opacity="0.4" d="M333.299 279.534L315.303 269.162C314.803 268.912 314.928 268.412 315.428 268.037L321.427 264.538C322.052 264.164 322.801 264.164 323.301 264.413L341.297 274.785C341.797 275.035 341.672 275.535 341.172 275.91L335.174 279.409C334.674 279.783 333.799 279.783 333.299 279.534Z" fill="#06033E"/>
<path opacity="0.4" d="M295.683 269.787L289.559 266.288C289.059 266.038 289.184 265.538 289.684 265.163L296.932 261.04C297.557 260.665 298.307 260.665 298.807 260.915L304.93 264.413C305.43 264.663 305.305 265.163 304.805 265.538L297.557 269.662C297.057 270.037 296.182 270.037 295.683 269.787Z" fill="#06033E"/>
<path opacity="0.4" d="M227.323 230.425L217.575 224.801C217.075 224.552 217.2 224.052 217.7 223.677L224.949 219.553C225.574 219.178 226.323 219.178 226.823 219.428L236.571 225.051C237.071 225.301 236.946 225.801 236.446 226.176L229.198 230.3C228.698 230.55 227.823 230.675 227.323 230.425Z" fill="#06033E"/>
<path opacity="0.4" d="M286.56 264.538L276.812 258.915C276.312 258.665 276.437 258.166 276.937 257.791L284.185 253.667C284.81 253.292 285.56 253.292 286.06 253.542L295.807 259.165C296.307 259.415 296.182 259.915 295.683 260.29L288.434 264.413C287.934 264.788 287.059 264.913 286.56 264.538Z" fill="#06033E"/>
<path opacity="0.4" d="M240.945 238.172L231.197 232.549C230.697 232.299 230.822 231.799 231.322 231.424L238.571 227.301C239.195 226.926 239.945 226.926 240.445 227.176L250.193 232.799C250.693 233.049 250.568 233.549 250.068 233.923L242.82 238.047C242.195 238.422 241.445 238.422 240.945 238.172Z" fill="#06033E"/>
<path opacity="0.4" d="M240.445 227.301L282.81 251.793C283.31 252.043 283.31 252.542 282.81 252.917L275.437 257.166C274.937 257.416 274.062 257.416 273.563 257.166L231.197 232.674L240.445 227.301Z" fill="#06033E"/>
<path opacity="0.4" d="M321.927 279.658L328.675 283.532C329.05 283.782 329.05 284.157 328.55 284.407L325.551 286.156C325.051 286.406 324.426 286.406 323.926 286.281L317.178 282.408C316.803 282.158 316.803 281.783 317.303 281.533L320.302 279.783C320.927 279.409 321.552 279.409 321.927 279.658Z" fill="#06033E"/>
<path opacity="0.4" d="M312.429 274.16L319.177 278.034C319.552 278.284 319.552 278.659 319.052 278.909L316.053 280.658C315.553 280.908 314.928 280.908 314.428 280.783L307.68 276.909C307.305 276.659 307.305 276.285 307.805 276.035L310.804 274.285C311.429 274.035 312.054 273.91 312.429 274.16Z" fill="#06033E"/>
<path opacity="0.4" d="M303.056 268.787L309.804 272.661C310.179 272.911 310.179 273.286 309.679 273.535L306.68 275.285C306.18 275.535 305.555 275.535 305.055 275.41L298.307 271.536C297.932 271.286 297.932 270.911 298.432 270.661L301.431 268.912C301.931 268.537 302.681 268.537 303.056 268.787Z" fill="#06033E"/>
<path opacity="0.4" d="M317.678 271.161L324.426 275.035C324.801 275.285 324.801 275.66 324.301 275.91L321.302 277.659C320.802 277.909 320.177 277.909 319.677 277.784L312.929 273.91C312.554 273.66 312.554 273.286 313.054 273.036L316.053 271.286C316.553 271.036 317.303 270.911 317.678 271.161Z" fill="#06033E"/>
</g>
<g opacity="0.4">
<path opacity="0.4" d="M195.455 211.931L189.332 208.432C188.832 208.182 188.957 207.682 189.457 207.307L196.705 203.183C197.33 202.809 198.08 202.809 198.58 203.059L204.703 206.557C205.203 206.807 205.078 207.307 204.578 207.682L197.33 211.806C196.83 212.181 195.955 212.181 195.455 211.931Z" fill="#06033E"/>
<path opacity="0.4" d="M204.828 217.429L198.705 213.93C198.205 213.68 198.33 213.18 198.83 212.805L206.078 208.682C206.703 208.307 207.453 208.307 207.953 208.557L214.076 212.056C214.576 212.306 214.451 212.805 213.951 213.18L206.703 217.304C206.203 217.679 205.328 217.679 204.828 217.429Z" fill="#06033E"/>
<path opacity="0.4" d="M214.326 222.802L208.203 219.303C207.703 219.053 207.828 218.553 208.327 218.179L215.576 214.055C216.201 213.68 216.951 213.68 217.45 213.93L223.574 217.429C224.074 217.679 223.949 218.179 223.449 218.553L216.201 222.677C215.576 223.052 214.701 223.052 214.326 222.802Z" fill="#06033E"/>
<path opacity="0.4" d="M227.323 218.304L221.2 214.805C220.7 214.555 220.825 214.055 221.324 213.68L227.323 210.181C227.948 209.806 228.698 209.806 229.198 210.056L235.321 213.555C235.821 213.805 235.696 214.305 235.196 214.68L229.198 218.179C228.573 218.553 227.823 218.678 227.323 218.304Z" fill="#06033E"/>
<path opacity="0.4" d="M236.696 223.802L230.572 220.303C230.072 220.053 230.197 219.553 230.697 219.178L236.696 215.679C237.321 215.305 238.071 215.305 238.571 215.554L244.694 219.053C245.194 219.303 245.069 219.803 244.569 220.178L238.571 223.677C238.071 224.052 237.196 224.052 236.696 223.802Z" fill="#06033E"/>
<path opacity="0.4" d="M246.069 229.175L239.945 225.676C239.445 225.426 239.57 224.926 240.07 224.551L246.069 221.053C246.694 220.678 247.444 220.678 247.943 220.928L254.067 224.427C254.567 224.676 254.442 225.176 253.942 225.551L247.943 229.05C247.444 229.425 246.569 229.425 246.069 229.175Z" fill="#06033E"/>
<path opacity="0.4" d="M255.567 234.673L249.443 231.174C248.943 230.924 249.068 230.425 249.568 230.05L255.567 226.551C256.192 226.176 256.941 226.176 257.441 226.426L263.565 229.925C264.065 230.175 263.94 230.674 263.44 231.049L257.441 234.548C256.816 234.923 256.067 234.923 255.567 234.673Z" fill="#06033E"/>
<path opacity="0.4" d="M264.94 240.046L258.816 236.548C258.316 236.298 258.441 235.798 258.941 235.423L264.94 231.924C265.564 231.549 266.314 231.549 266.814 231.799L272.938 235.298C273.438 235.548 273.313 236.048 272.813 236.423L266.814 239.921C266.314 240.296 265.439 240.296 264.94 240.046Z" fill="#06033E"/>
<path opacity="0.4" d="M274.312 245.545L268.189 242.046C267.689 241.796 267.814 241.296 268.314 240.921L274.312 237.422C274.937 237.047 275.687 237.047 276.187 237.297L282.311 240.796C282.811 241.046 282.686 241.546 282.186 241.921L276.187 245.42C275.687 245.795 274.812 245.795 274.312 245.545Z" fill="#06033E"/>
<path opacity="0.4" d="M283.81 250.918L277.687 247.419C277.187 247.169 277.312 246.669 277.812 246.294L283.81 242.796C284.435 242.421 285.185 242.421 285.685 242.671L291.808 246.169C292.308 246.419 292.183 246.919 291.683 247.294L285.685 250.793C285.06 251.168 284.185 251.168 283.81 250.918Z" fill="#06033E"/>
<path opacity="0.4" d="M293.183 256.416L287.059 252.917C286.56 252.667 286.685 252.167 287.184 251.793L293.183 248.294C293.808 247.919 294.558 247.919 295.058 248.169L301.181 251.668C301.681 251.918 301.556 252.417 301.056 252.792L295.058 256.291C294.558 256.666 293.683 256.666 293.183 256.416Z" fill="#06033E"/>
<path opacity="0.4" d="M302.556 261.789L296.432 258.29C295.932 258.041 296.057 257.541 296.557 257.166L302.556 253.667C303.181 253.292 303.931 253.292 304.431 253.542L310.554 257.041C311.054 257.291 310.929 257.791 310.429 258.166L304.431 261.664C303.931 262.039 303.056 262.039 302.556 261.789Z" fill="#06033E"/>
<path opacity="0.4" d="M311.929 267.288L305.805 263.789C305.305 263.539 305.43 263.039 305.93 262.664L311.929 259.165C312.554 258.79 313.303 258.79 313.803 259.04L319.927 262.539C320.427 262.789 320.302 263.289 319.802 263.664L313.803 267.163C313.303 267.537 312.429 267.537 311.929 267.288Z" fill="#06033E"/>
<path opacity="0.4" d="M241.195 215.804L235.071 212.306C234.571 212.056 234.696 211.556 235.196 211.181L241.195 207.682C241.82 207.307 242.57 207.307 243.07 207.557L249.193 211.056C249.693 211.306 249.568 211.806 249.068 212.181L243.07 215.679C242.445 216.054 241.695 216.054 241.195 215.804Z" fill="#06033E"/>
<path opacity="0.4" d="M231.572 210.306L225.449 206.807C224.949 206.557 225.074 206.058 225.574 205.683L231.572 202.184C232.197 201.809 232.947 201.809 233.447 202.059L239.57 205.558C240.07 205.808 239.945 206.307 239.445 206.682L233.447 210.181C232.947 210.556 232.072 210.556 231.572 210.306Z" fill="#06033E"/>
<path opacity="0.4" d="M222.074 204.683L208.952 197.061C208.452 196.811 208.577 196.311 209.077 195.936L215.076 192.437C215.701 192.062 216.451 192.062 216.951 192.312L230.073 199.935C230.572 200.184 230.447 200.684 229.948 201.059L223.949 204.558C223.324 204.933 222.574 205.058 222.074 204.683Z" fill="#06033E"/>
<path opacity="0.4" d="M228.698 198.06L218.075 191.937C217.575 191.687 217.7 191.187 218.2 190.813L224.199 187.314C224.824 186.939 225.574 186.939 226.073 187.189L236.696 193.312C237.196 193.562 237.071 194.061 236.571 194.436L230.572 197.935C230.073 198.31 229.198 198.31 228.698 198.06Z" fill="#06033E"/>
<path opacity="0.4" d="M250.568 221.178L244.444 217.679C243.944 217.429 244.069 216.929 244.569 216.554L250.568 213.055C251.193 212.68 251.942 212.68 252.442 212.93L258.566 216.429C259.066 216.679 258.941 217.179 258.441 217.554L252.442 221.178C251.942 221.428 251.068 221.428 250.568 221.178Z" fill="#06033E"/>
<path opacity="0.4" d="M259.941 226.676L253.817 223.177C253.317 222.927 253.442 222.427 253.942 222.052L259.941 218.553C260.566 218.179 261.315 218.179 261.815 218.429L267.939 221.927C268.439 222.177 268.314 222.677 267.814 223.052L261.815 226.551C261.315 226.926 260.441 226.926 259.941 226.676Z" fill="#06033E"/>
<path opacity="0.4" d="M269.439 232.049L263.315 228.55C262.815 228.3 262.94 227.8 263.44 227.426L269.439 223.927C270.063 223.552 270.813 223.552 271.313 223.802L277.437 227.301C277.937 227.551 277.812 228.05 277.312 228.425L271.313 231.924C270.688 232.299 269.813 232.299 269.439 232.049Z" fill="#06033E"/>
<path opacity="0.4" d="M278.811 237.547L272.688 234.048C272.188 233.798 272.313 233.299 272.813 232.924L278.811 229.425C279.436 229.05 280.186 229.05 280.686 229.3L286.81 232.799C287.309 233.049 287.184 233.549 286.685 233.923L280.686 237.422C280.186 237.797 279.311 237.797 278.811 237.547Z" fill="#06033E"/>
<path opacity="0.4" d="M288.184 242.92L282.061 239.422C281.561 239.172 281.686 238.672 282.186 238.297L288.184 234.798C288.809 234.423 289.559 234.423 290.059 234.673L296.182 238.172C296.682 238.422 296.557 238.922 296.057 239.297L290.059 242.796C289.559 243.17 288.684 243.17 288.184 242.92Z" fill="#06033E"/>
<path opacity="0.4" d="M297.557 248.419L291.433 244.92C290.934 244.67 291.059 244.17 291.558 243.795L297.557 240.296C298.182 239.921 298.932 239.921 299.432 240.171L305.555 243.67C306.055 243.92 305.93 244.42 305.43 244.795L299.432 248.294C298.932 248.669 298.057 248.669 297.557 248.419Z" fill="#06033E"/>
<path opacity="0.4" d="M307.055 253.792L300.931 250.293C300.431 250.043 300.556 249.543 301.056 249.168L307.055 245.67C307.68 245.295 308.43 245.295 308.929 245.545L315.053 249.044C315.553 249.293 315.428 249.793 314.928 250.168L308.929 253.667C308.43 254.042 307.555 254.042 307.055 253.792Z" fill="#06033E"/>
<path opacity="0.4" d="M316.428 259.165L310.304 255.666C309.804 255.416 309.929 254.917 310.429 254.542L316.428 251.043C317.053 250.668 317.802 250.668 318.302 250.918L324.426 254.417C324.926 254.667 324.801 255.167 324.301 255.541L318.302 259.04C317.802 259.415 316.928 259.54 316.428 259.165Z" fill="#06033E"/>
<path opacity="0.4" d="M325.801 264.663L319.677 261.165C319.177 260.915 319.302 260.415 319.802 260.04L325.801 256.541C326.425 256.166 327.175 256.166 327.675 256.416L333.799 259.915C334.299 260.165 334.174 260.665 333.674 261.04L327.675 264.538C327.175 264.913 326.301 264.913 325.801 264.663Z" fill="#06033E"/>
<path opacity="0.4" d="M342.547 274.285L329.3 266.663C328.8 266.413 328.925 265.913 329.425 265.538L335.423 262.039C336.048 261.664 336.798 261.664 337.298 261.914L350.545 269.537C351.045 269.787 350.92 270.287 350.42 270.661L344.421 274.16C343.922 274.535 343.047 274.66 342.547 274.285Z" fill="#06033E"/>
<path opacity="0.4" d="M360.918 263.789L349.67 257.291C349.17 257.041 349.295 256.541 349.795 256.166L355.794 252.667C356.419 252.292 357.168 252.292 357.668 252.542L368.916 259.04C369.416 259.29 369.291 259.79 368.791 260.165L362.792 263.664C362.292 264.039 361.417 264.039 360.918 263.789Z" fill="#06033E"/>
<path opacity="0.4" d="M267.064 220.178L260.94 216.679C260.441 216.429 260.565 215.929 261.065 215.554L267.064 212.056C267.689 211.681 268.439 211.681 268.939 211.931L275.062 215.429C275.562 215.679 275.437 216.179 274.937 216.554L268.939 220.053C268.439 220.428 267.564 220.428 267.064 220.178Z" fill="#06033E"/>
<path opacity="0.4" d="M257.441 214.555L251.318 211.056C250.818 210.806 250.943 210.306 251.443 209.931L257.441 206.432C258.066 206.058 258.816 206.058 259.316 206.307L265.439 209.806C265.939 210.056 265.814 210.556 265.314 210.931L259.316 214.43C258.691 214.805 257.941 214.805 257.441 214.555Z" fill="#06033E"/>
<path opacity="0.4" d="M247.693 209.057L241.57 205.558C241.07 205.308 241.195 204.808 241.695 204.433L247.693 200.934C248.318 200.559 249.068 200.559 249.568 200.809L255.692 204.308C256.192 204.558 256.067 205.058 255.567 205.433L249.568 208.932C249.068 209.306 248.193 209.307 247.693 209.057Z" fill="#06033E"/>
<path opacity="0.4" d="M238.071 203.433L231.947 199.935C231.447 199.685 231.572 199.185 232.072 198.81L238.071 195.311C238.696 194.936 239.445 194.936 239.945 195.186L246.069 198.685C246.569 198.935 246.444 199.435 245.944 199.81L239.945 203.308C239.445 203.683 238.571 203.683 238.071 203.433Z" fill="#06033E"/>
<path opacity="0.4" d="M276.437 225.551L270.313 222.052C269.813 221.802 269.938 221.303 270.438 220.928L276.437 217.429C277.062 217.054 277.812 217.054 278.311 217.304L284.435 220.803C284.935 221.053 284.81 221.552 284.31 221.927L278.311 225.426C277.812 225.801 276.937 225.801 276.437 225.551Z" fill="#06033E"/>
<path opacity="0.4" d="M285.81 231.049L279.686 227.551C279.186 227.301 279.311 226.801 279.811 226.426L285.81 222.927C286.435 222.552 287.184 222.552 287.684 222.802L293.808 226.301C294.308 226.551 294.183 227.051 293.683 227.426L287.684 230.924C287.184 231.299 286.31 231.299 285.81 231.049Z" fill="#06033E"/>
<path opacity="0.4" d="M295.308 236.423L289.184 232.924C288.684 232.674 288.809 232.174 289.309 231.799L295.308 228.3C295.932 227.925 296.682 227.925 297.182 228.175L303.306 231.674C303.806 231.924 303.681 232.424 303.181 232.799L297.182 236.298C296.682 236.673 295.807 236.673 295.308 236.423Z" fill="#06033E"/>
<path opacity="0.4" d="M304.68 241.921L298.557 238.422C298.057 238.172 298.182 237.672 298.682 237.297L304.68 233.798C305.305 233.424 306.055 233.424 306.555 233.674L312.679 237.172C313.179 237.422 313.054 237.922 312.554 238.297L306.555 241.796C306.055 242.171 305.18 242.171 304.68 241.921Z" fill="#06033E"/>
<path opacity="0.4" d="M314.053 247.294L307.93 243.795C307.43 243.545 307.555 243.045 308.055 242.671L314.053 239.172C314.678 238.797 315.428 238.797 315.928 239.047L322.052 242.546C322.551 242.796 322.426 243.295 321.927 243.67L315.928 247.169C315.428 247.544 314.553 247.544 314.053 247.294Z" fill="#06033E"/>
<path opacity="0.4" d="M323.551 252.667L317.428 249.168C316.928 248.919 317.053 248.419 317.553 248.044L323.551 244.545C324.176 244.17 324.926 244.17 325.426 244.42L331.549 247.919C332.049 248.169 331.924 248.669 331.424 249.044L325.426 252.542C324.801 252.917 324.051 253.042 323.551 252.667Z" fill="#06033E"/>
<path opacity="0.4" d="M332.924 258.166L326.8 254.667C326.301 254.417 326.425 253.917 326.925 253.542L332.924 250.043C333.549 249.668 334.299 249.668 334.799 249.918L340.922 253.417C341.422 253.667 341.297 254.167 340.797 254.542L334.799 258.041C334.299 258.415 333.424 258.415 332.924 258.166Z" fill="#06033E"/>
<path opacity="0.4" d="M342.297 263.539L336.173 260.04C335.673 259.79 335.798 259.29 336.298 258.915L342.297 255.416C342.922 255.042 343.672 255.042 344.171 255.291L350.295 258.79C350.795 259.04 350.67 259.54 350.17 259.915L344.171 263.414C343.672 263.789 342.797 263.914 342.297 263.539Z" fill="#06033E"/>
<path opacity="0.4" d="M351.795 269.037L345.671 265.538C345.171 265.288 345.296 264.788 345.796 264.413L351.795 260.915C352.42 260.54 353.169 260.54 353.669 260.79L359.793 264.289C360.293 264.538 360.168 265.038 359.668 265.413L353.669 268.912C353.044 269.287 352.17 269.287 351.795 269.037Z" fill="#06033E"/>
<path opacity="0.4" d="M262.065 206.682L255.942 203.184C255.442 202.934 255.567 202.434 256.067 202.059L262.065 198.56C262.69 198.185 263.44 198.185 263.94 198.435L270.063 201.934C270.563 202.184 270.438 202.684 269.938 203.059L263.94 206.557C263.44 206.932 262.565 206.932 262.065 206.682Z" fill="#06033E"/>
<path opacity="0.4" d="M252.692 201.309L246.569 197.81C246.069 197.56 246.194 197.06 246.694 196.686L252.692 193.187C253.317 192.812 254.067 192.812 254.567 193.062L260.691 196.561C261.19 196.811 261.065 197.31 260.566 197.685L254.567 201.184C254.067 201.559 253.192 201.559 252.692 201.309Z" fill="#06033E"/>
<path opacity="0.4" d="M243.319 195.936L237.196 192.437C236.696 192.187 236.821 191.687 237.321 191.312L243.319 187.814C243.944 187.439 244.694 187.439 245.194 187.689L251.318 191.187C251.818 191.437 251.693 191.937 251.193 192.312L245.194 195.811C244.694 196.186 243.819 196.186 243.319 195.936Z" fill="#06033E"/>
<path opacity="0.4" d="M233.947 190.438L227.823 186.939C227.323 186.689 227.448 186.189 227.948 185.814L233.947 182.315C234.571 181.94 235.321 181.94 235.821 182.19L241.945 185.689C242.445 185.939 242.32 186.439 241.82 186.814L235.821 190.313C235.321 190.688 234.446 190.813 233.947 190.438Z" fill="#06033E"/>
<path opacity="0.4" d="M243.569 184.939L237.446 181.441C236.946 181.191 237.071 180.691 237.571 180.316L239.57 179.191C240.195 178.816 240.945 178.816 241.445 179.066L247.568 182.565C248.068 182.815 247.943 183.315 247.444 183.69L245.444 184.815C244.944 185.189 244.069 185.189 243.569 184.939Z" fill="#06033E"/>
<path opacity="0.4" d="M255.817 191.937L249.693 188.438C249.193 188.188 249.318 187.689 249.818 187.314L251.818 186.189C252.442 185.814 253.192 185.814 253.692 186.064L259.816 189.563C260.316 189.813 260.191 190.313 259.691 190.688L257.691 191.812C257.191 192.187 256.317 192.312 255.817 191.937Z" fill="#06033E"/>
<path opacity="0.4" d="M265.189 197.31L259.066 193.812C258.566 193.562 258.691 193.062 259.191 192.687L261.19 191.562C261.815 191.187 262.565 191.187 263.065 191.437L269.189 194.936C269.688 195.186 269.563 195.686 269.064 196.061L267.064 197.185C266.564 197.56 265.689 197.685 265.189 197.31Z" fill="#06033E"/>
<path opacity="0.4" d="M274.437 202.684L268.314 199.185C267.814 198.935 267.939 198.435 268.439 198.06L270.438 196.936C271.063 196.561 271.813 196.561 272.313 196.811L278.436 200.309C278.936 200.559 278.811 201.059 278.311 201.434L276.312 202.559C275.812 202.934 274.937 203.059 274.437 202.684Z" fill="#06033E"/>
<path opacity="0.4" d="M283.81 208.182L277.687 204.683C277.187 204.433 277.312 203.933 277.812 203.558L279.811 202.434C280.436 202.059 281.186 202.059 281.686 202.309L287.809 205.808C288.309 206.058 288.184 206.557 287.684 206.932L285.685 208.057C285.185 208.432 284.31 208.432 283.81 208.182Z" fill="#06033E"/>
<path opacity="0.4" d="M335.923 238.172L329.8 234.673C329.3 234.423 329.425 233.923 329.925 233.549L331.924 232.424C332.549 232.049 333.299 232.049 333.799 232.299L339.922 235.798C340.422 236.048 340.297 236.548 339.797 236.922L337.798 238.047C337.173 238.422 336.423 238.422 335.923 238.172Z" fill="#06033E"/>
<path opacity="0.4" d="M345.171 243.545L339.048 240.046C338.548 239.797 338.673 239.297 339.173 238.922L341.172 237.797C341.797 237.422 342.547 237.422 343.047 237.672L349.17 241.171C349.67 241.421 349.545 241.921 349.045 242.296L347.046 243.42C346.546 243.795 345.671 243.795 345.171 243.545Z" fill="#06033E"/>
<path opacity="0.4" d="M354.544 248.919L348.421 245.42C347.921 245.17 348.046 244.67 348.545 244.295L350.545 243.17C351.17 242.796 351.92 242.796 352.42 243.045L358.543 246.544C359.043 246.794 358.918 247.294 358.418 247.669L356.419 248.794C355.919 249.168 355.044 249.168 354.544 248.919Z" fill="#06033E"/>
<path opacity="0.4" d="M363.917 254.292L357.793 250.793C357.293 250.543 357.418 250.043 357.918 249.668L359.918 248.544C360.543 248.169 361.293 248.169 361.792 248.419L367.916 251.918C368.416 252.167 368.291 252.667 367.791 253.042L365.792 254.167C365.167 254.542 364.292 254.667 363.917 254.292Z" fill="#06033E"/>
<path opacity="0.4" d="M271.438 212.181L265.314 208.682C264.815 208.432 264.94 207.932 265.439 207.557L271.438 204.058C272.063 203.683 272.813 203.683 273.313 203.933L279.436 207.432C279.936 207.682 279.811 208.182 279.311 208.557L273.313 212.056C272.813 212.43 271.938 212.43 271.438 212.181Z" fill="#06033E"/>
<path opacity="0.4" d="M280.936 217.554L274.812 214.055C274.312 213.805 274.437 213.305 274.937 212.93L280.936 209.431C281.561 209.057 282.311 209.057 282.81 209.306L288.934 212.805C289.434 213.055 289.309 213.555 288.809 213.93L282.81 217.429C282.311 217.804 281.436 217.804 280.936 217.554Z" fill="#06033E"/>
<path opacity="0.4" d="M290.309 223.052L284.185 219.553C283.685 219.303 283.81 218.803 284.31 218.429L290.309 214.93C290.934 214.555 291.683 214.555 292.183 214.805L298.307 218.304C298.807 218.553 298.682 219.053 298.182 219.428L292.183 222.927C291.683 223.302 290.809 223.302 290.309 223.052Z" fill="#06033E"/>
<path opacity="0.4" d="M299.682 228.425L293.683 224.926C293.183 224.676 293.308 224.177 293.808 223.802L299.807 220.303C300.431 219.928 301.181 219.928 301.681 220.178L307.805 223.677C308.305 223.927 308.18 224.427 307.68 224.801L301.681 228.3C301.056 228.675 300.181 228.675 299.682 228.425Z" fill="#06033E"/>
<path opacity="0.4" d="M309.179 233.798L303.056 230.3C302.556 230.05 302.681 229.55 303.181 229.175L309.179 225.676C309.804 225.301 310.554 225.301 311.054 225.551L317.178 229.05C317.678 229.3 317.553 229.8 317.053 230.175L311.054 233.674C310.429 234.048 309.679 234.173 309.179 233.798Z" fill="#06033E"/>
<path opacity="0.4" d="M318.552 239.297L312.429 235.798C311.929 235.548 312.054 235.048 312.554 234.673L318.552 231.174C319.177 230.799 319.927 230.799 320.427 231.049L326.55 234.548C327.05 234.798 326.925 235.298 326.426 235.673L320.427 239.172C319.927 239.547 319.052 239.547 318.552 239.297Z" fill="#06033E"/>
<path opacity="0.4" d="M327.925 244.67L321.802 241.171C321.302 240.921 321.427 240.421 321.927 240.046L327.925 236.548C328.55 236.173 329.3 236.173 329.8 236.423L335.923 239.921C336.423 240.171 336.298 240.671 335.798 241.046L329.8 244.545C329.3 244.92 328.425 245.045 327.925 244.67Z" fill="#06033E"/>
<path opacity="0.4" d="M337.423 250.168L331.299 246.669C330.8 246.419 330.925 245.92 331.424 245.545L337.423 242.046C338.048 241.671 338.798 241.671 339.298 241.921L345.421 245.42C345.921 245.67 345.796 246.169 345.296 246.544L339.298 250.043C338.673 250.418 337.923 250.418 337.423 250.168Z" fill="#06033E"/>
<path opacity="0.4" d="M346.796 255.541L340.672 252.043C340.172 251.793 340.297 251.293 340.797 250.918L346.796 247.419C347.421 247.044 348.171 247.044 348.67 247.294L354.794 250.793C355.294 251.043 355.169 251.543 354.669 251.918L348.67 255.416C348.171 255.791 347.296 255.916 346.796 255.541Z" fill="#06033E"/>
<path opacity="0.4" d="M217.7 212.805L199.704 202.434C199.205 202.184 199.329 201.684 199.829 201.309L205.828 197.81C206.453 197.435 207.203 197.435 207.703 197.685L225.698 208.057C226.198 208.307 226.073 208.807 225.573 209.182L219.575 212.68C219.075 213.055 218.2 213.055 217.7 212.805Z" fill="#06033E"/>
<path opacity="0.4" d="M333.299 279.534L315.303 269.162C314.803 268.912 314.928 268.412 315.428 268.037L321.427 264.538C322.052 264.164 322.801 264.164 323.301 264.413L341.297 274.785C341.797 275.035 341.672 275.535 341.172 275.91L335.174 279.409C334.674 279.783 333.799 279.783 333.299 279.534Z" fill="#06033E"/>
<path opacity="0.4" d="M295.683 269.787L289.559 266.288C289.059 266.038 289.184 265.538 289.684 265.163L296.932 261.04C297.557 260.665 298.307 260.665 298.807 260.915L304.93 264.413C305.43 264.663 305.305 265.163 304.805 265.538L297.557 269.662C297.057 270.037 296.182 270.037 295.683 269.787Z" fill="#06033E"/>
<path opacity="0.4" d="M227.323 230.425L217.575 224.801C217.075 224.552 217.2 224.052 217.7 223.677L224.949 219.553C225.574 219.178 226.323 219.178 226.823 219.428L236.571 225.051C237.071 225.301 236.946 225.801 236.446 226.176L229.198 230.3C228.698 230.55 227.823 230.675 227.323 230.425Z" fill="#06033E"/>
<path opacity="0.4" d="M286.56 264.538L276.812 258.915C276.312 258.665 276.437 258.166 276.937 257.791L284.185 253.667C284.81 253.292 285.56 253.292 286.06 253.542L295.807 259.165C296.307 259.415 296.182 259.915 295.683 260.29L288.434 264.413C287.934 264.788 287.059 264.913 286.56 264.538Z" fill="#06033E"/>
<path opacity="0.4" d="M240.945 238.172L231.197 232.549C230.697 232.299 230.822 231.799 231.322 231.424L238.571 227.301C239.195 226.926 239.945 226.926 240.445 227.176L250.193 232.799C250.693 233.049 250.568 233.549 250.068 233.923L242.82 238.047C242.195 238.422 241.445 238.422 240.945 238.172Z" fill="#06033E"/>
<path opacity="0.4" d="M240.445 227.301L282.81 251.793C283.31 252.043 283.31 252.542 282.81 252.917L275.437 257.166C274.937 257.416 274.062 257.416 273.563 257.166L231.197 232.674L240.445 227.301Z" fill="#06033E"/>
<path opacity="0.4" d="M321.927 279.658L328.675 283.532C329.05 283.782 329.05 284.157 328.55 284.407L325.551 286.156C325.051 286.406 324.426 286.406 323.926 286.281L317.178 282.408C316.803 282.158 316.803 281.783 317.303 281.533L320.302 279.783C320.927 279.409 321.552 279.409 321.927 279.658Z" fill="#06033E"/>
<path opacity="0.4" d="M312.429 274.16L319.177 278.034C319.552 278.284 319.552 278.659 319.052 278.909L316.053 280.658C315.553 280.908 314.928 280.908 314.428 280.783L307.68 276.909C307.305 276.659 307.305 276.285 307.805 276.035L310.804 274.285C311.429 274.035 312.054 273.91 312.429 274.16Z" fill="#06033E"/>
<path opacity="0.4" d="M303.056 268.787L309.804 272.661C310.179 272.911 310.179 273.286 309.679 273.535L306.68 275.285C306.18 275.535 305.555 275.535 305.055 275.41L298.307 271.536C297.932 271.286 297.932 270.911 298.432 270.661L301.431 268.912C301.931 268.537 302.681 268.537 303.056 268.787Z" fill="#06033E"/>
<path opacity="0.4" d="M317.678 271.161L324.426 275.035C324.801 275.285 324.801 275.66 324.301 275.91L321.302 277.659C320.802 277.909 320.177 277.909 319.677 277.784L312.929 273.91C312.554 273.66 312.554 273.286 313.054 273.036L316.053 271.286C316.553 271.036 317.303 270.911 317.678 271.161Z" fill="#06033E"/>
</g>
<path d="M417.28 260.165L237.446 156.449C234.572 154.824 233.197 150.826 234.197 147.577L274.812 15.6199C275.812 12.371 278.936 10.9964 281.811 12.6209L461.645 116.462C464.519 118.086 465.894 122.085 464.894 125.334L424.278 257.291C423.278 260.54 420.154 261.789 417.28 260.165Z" fill="url(#paint7_radial_127:2)"/>
<path d="M415.53 255.541L241.195 154.824C238.446 153.325 237.071 149.451 238.071 146.327L276.937 20.1184C277.937 16.9944 280.936 15.7448 283.56 17.2444L457.896 117.961C460.645 119.461 462.02 123.335 461.02 126.459L422.154 252.667C421.279 255.916 418.28 257.166 415.53 255.541Z" fill="url(#paint8_linear_127:2)"/>
<path opacity="0.4" d="M415.53 255.541L241.195 154.824C238.446 153.325 237.071 149.451 238.071 146.327L276.937 20.1184C277.937 16.9944 280.936 15.7448 283.56 17.2444L457.896 117.961C460.645 119.461 462.02 123.335 461.02 126.459L422.154 252.667C421.279 255.916 418.28 257.166 415.53 255.541Z" fill="#06033E"/>
<path opacity="0.4" d="M415.53 255.541L241.195 154.824C238.446 153.325 237.071 149.451 238.071 146.327L276.937 20.1184C277.937 16.9944 280.936 15.7448 283.56 17.2444L457.896 117.961C460.645 119.461 462.02 123.335 461.02 126.459L422.154 252.667C421.279 255.916 418.28 257.166 415.53 255.541Z" fill="#06033E"/>
<path opacity="0.5" d="M406.157 217.054L288.059 148.951C286.185 147.827 285.185 145.327 285.935 143.078L312.679 56.3566C313.303 54.2322 315.428 53.3575 317.178 54.3572L435.276 122.46C437.15 123.585 438.15 126.084 437.4 128.333L410.656 215.055C410.156 217.179 408.032 218.054 406.157 217.054Z" fill="#06033E"/>
<path d="M390.286 219.053L272.188 150.951C270.313 149.826 269.314 147.327 270.063 145.078L296.807 58.3559C297.432 56.2316 299.557 55.3569 301.306 56.3566L419.404 124.459C421.279 125.584 422.279 128.083 421.529 130.332L394.785 217.054C394.16 219.303 392.161 220.178 390.286 219.053Z" fill="url(#paint9_radial_127:2)"/>
<g opacity="0.5">
<path opacity="0.5" d="M390.286 219.053L272.188 150.951C270.313 149.826 269.314 147.327 270.063 145.078L296.807 58.3559C297.432 56.2316 299.557 55.3569 301.306 56.3566L419.404 124.459C421.279 125.584 422.279 128.083 421.529 130.332L394.785 217.054C394.16 219.303 392.161 220.178 390.286 219.053Z" fill="#06033E"/>
</g>
<path d="M419.404 124.709L301.306 56.6065C300.182 55.9817 298.932 55.9817 297.932 56.7314C298.432 56.7314 299.057 56.8564 299.682 57.1063L417.78 125.209C419.654 126.334 420.654 128.833 419.904 131.082L393.16 217.804C392.91 218.553 392.535 219.178 391.911 219.678C393.16 219.678 394.285 218.803 394.785 217.304L421.529 130.582C422.154 128.333 421.154 125.709 419.404 124.709Z" fill="white"/>
<path opacity="0.4" d="M241.32 289.905C239.695 289.905 238.196 289.53 236.946 288.905L189.707 261.664C188.457 260.915 187.707 259.915 187.707 258.79C187.707 257.416 188.707 256.166 190.332 255.166L214.701 241.171C217.7 239.422 222.074 239.297 224.699 240.796L271.938 268.037C273.188 268.787 273.937 269.787 273.937 270.911C273.937 272.286 272.938 273.535 271.313 274.535L246.944 288.531C245.319 289.405 243.319 289.905 241.32 289.905ZM220.325 240.921C218.575 240.921 216.825 241.296 215.451 242.171L191.081 256.166C189.832 256.916 189.207 257.791 189.207 258.54C189.207 259.415 189.832 259.915 190.457 260.29L237.696 287.656C239.82 288.905 243.819 288.78 246.319 287.281L270.688 273.286C271.938 272.536 272.563 271.661 272.563 270.911C272.563 270.037 271.938 269.537 271.313 269.162L224.074 241.921C223.074 241.171 221.699 240.921 220.325 240.921Z" fill="#06033E"/>
<path d="M330.05 101.967L322.801 97.718C322.176 97.3431 321.802 96.3435 322.051 95.5937C322.301 94.844 323.051 94.4691 323.676 94.9689L330.924 99.2175C331.549 99.5924 331.924 100.592 331.674 101.342C331.424 102.092 330.8 102.342 330.05 101.967Z" fill="white"/>
<path d="M347.421 111.963L336.673 105.715C336.048 105.341 335.673 104.341 335.923 103.591C336.173 102.841 336.923 102.466 337.548 102.966L348.296 109.214C348.92 109.589 349.295 110.589 349.045 111.339C348.92 112.088 348.171 112.338 347.421 111.963Z" fill="white"/>
<path d="M315.303 134.456L308.055 130.207C307.43 129.833 307.055 128.833 307.305 128.083C307.555 127.333 308.305 126.958 308.929 127.458L316.178 131.707C316.803 132.082 317.178 133.081 316.928 133.831C316.803 134.581 316.053 134.831 315.303 134.456Z" fill="white"/>
<path d="M330.8 143.453L320.052 137.205C319.427 136.83 319.052 135.831 319.302 135.081C319.552 134.331 320.302 133.956 320.927 134.456L331.674 140.704C332.299 141.079 332.674 142.078 332.424 142.828C332.299 143.453 331.549 143.828 330.8 143.453Z" fill="white"/>
<path d="M308.18 96.2185L303.681 93.5944C303.056 93.2195 302.681 92.2198 302.931 91.4701C303.181 90.7203 303.931 90.3454 304.555 90.8453L309.054 93.4694C309.679 93.8443 310.054 94.844 309.804 95.5937C309.554 96.2185 308.929 96.5934 308.18 96.2185Z" fill="white"/>
<path d="M321.927 110.964L308.055 102.966C307.43 102.591 307.055 101.592 307.305 100.842C307.555 100.092 308.305 99.7174 308.929 100.217L322.801 108.215C323.426 108.589 323.801 109.589 323.551 110.339C323.301 110.964 322.551 111.339 321.927 110.964Z" fill="white"/>
<path d="M309.055 117.212L304.556 114.588C303.931 114.213 303.556 113.213 303.806 112.463C304.056 111.713 304.805 111.339 305.43 111.838L309.929 114.463C310.554 114.837 310.929 115.837 310.679 116.587C310.429 117.212 309.804 117.587 309.055 117.212Z" fill="white"/>
<path d="M332.549 158.073L320.427 151.076C319.802 150.701 319.427 149.701 319.677 148.951C319.927 148.202 320.677 147.827 321.302 148.326L333.424 155.324C334.049 155.699 334.424 156.699 334.174 157.448C333.924 158.073 333.174 158.448 332.549 158.073Z" fill="white"/>
<path d="M303.931 127.833L301.056 126.084C300.431 125.709 300.056 124.709 300.306 123.959C300.556 123.21 301.306 122.835 301.931 123.335L304.805 125.084C305.43 125.459 305.805 126.459 305.555 127.208C305.43 127.958 304.68 128.333 303.931 127.833Z" fill="white"/>
<path d="M301.181 139.954L297.557 137.83C296.932 137.455 296.557 136.455 296.807 135.706C297.057 134.956 297.807 134.581 298.432 135.081L302.056 137.205C302.681 137.58 303.056 138.58 302.806 139.329C302.556 140.079 301.931 140.329 301.181 139.954Z" fill="white"/>
<path d="M315.303 148.077L305.68 142.578C305.055 142.203 304.681 141.204 304.93 140.454C305.18 139.704 305.93 139.329 306.555 139.829L316.178 145.327C316.803 145.702 317.178 146.702 316.928 147.452C316.803 148.202 316.053 148.451 315.303 148.077Z" fill="white"/>
<path d="M302.681 147.702L295.807 143.703C295.183 143.328 294.808 142.328 295.058 141.579C295.308 140.829 296.057 140.454 296.682 140.954L303.556 144.953C304.181 145.327 304.556 146.327 304.306 147.077C304.181 147.702 303.431 148.077 302.681 147.702Z" fill="white"/>
<path d="M342.922 164.071L338.548 161.572C337.923 161.197 337.548 160.198 337.798 159.448C338.048 158.698 338.798 158.323 339.423 158.823L343.797 161.322C344.421 161.697 344.796 162.697 344.546 163.447C344.421 164.196 343.672 164.446 342.922 164.071Z" fill="white"/>
<path d="M326.051 126.958L313.928 119.961C313.303 119.586 312.929 118.586 313.179 117.836C313.428 117.087 314.178 116.712 314.803 117.212L326.925 124.209C327.55 124.584 327.925 125.584 327.675 126.334C327.425 127.083 326.675 127.333 326.051 126.958Z" fill="white"/>
<path d="M327.425 120.96L306.18 108.714C305.555 108.34 305.18 107.34 305.43 106.59C305.68 105.84 306.43 105.465 307.055 105.965L328.3 118.211C328.925 118.586 329.3 119.586 329.05 120.336C328.925 121.085 328.175 121.335 327.425 120.96Z" fill="#E8975B"/>
<path d="M314.928 127.458L302.806 120.461C302.181 120.086 301.806 119.086 302.056 118.336C302.306 117.587 303.056 117.212 303.681 117.711L315.803 124.709C316.428 125.084 316.803 126.084 316.553 126.834C316.303 127.458 315.678 127.833 314.928 127.458Z" fill="#E8975B"/>
<path d="M335.299 132.332L330.925 129.833C330.3 129.458 329.925 128.458 330.175 127.708C330.425 126.958 331.174 126.584 331.799 127.083L336.173 129.583C336.798 129.957 337.173 130.957 336.923 131.707C336.673 132.332 335.923 132.707 335.299 132.332Z" fill="#E8975B"/>
<path d="M380.288 130.957L354.044 115.837C353.419 115.462 353.044 114.463 353.294 113.713C353.544 112.963 354.294 112.588 354.919 113.088L381.163 128.208C381.788 128.583 382.163 129.583 381.913 130.332C381.663 131.082 380.913 131.332 380.288 130.957Z" fill="#E8975B"/>
<path d="M313.928 140.454L299.307 131.957C298.682 131.582 298.307 130.582 298.557 129.833C298.807 129.083 299.557 128.708 300.182 129.208L314.803 137.705C315.428 138.08 315.803 139.08 315.553 139.829C315.303 140.579 314.553 140.829 313.928 140.454Z" fill="#F8359E"/>
<path d="M316.178 93.9693L305.43 87.7213C304.805 87.3464 304.431 86.3467 304.681 85.597C304.93 84.8472 305.68 84.4724 306.305 84.9722L317.053 91.2202C317.678 91.595 318.052 92.5947 317.803 93.3445C317.553 93.9693 316.803 94.3441 316.178 93.9693Z" fill="#F8359E"/>
<path d="M300.431 153.2L287.934 145.952C287.309 145.577 286.935 144.578 287.184 143.828C287.434 143.078 288.184 142.703 288.809 143.203L301.306 150.451C301.931 150.826 302.306 151.825 302.056 152.575C301.931 153.325 301.181 153.575 300.431 153.2Z" fill="#E8975B"/>
<path d="M383.163 117.462L377.789 114.338C377.289 114.088 377.039 113.338 377.164 112.838C377.289 112.338 377.914 112.088 378.414 112.338L383.787 115.462C384.287 115.712 384.537 116.462 384.412 116.962C384.287 117.587 383.663 117.711 383.163 117.462Z" fill="white"/>
<path d="M393.41 123.335L388.036 120.211C387.537 119.961 387.287 119.211 387.412 118.711C387.537 118.211 388.161 117.961 388.661 118.211L394.035 121.335C394.535 121.585 394.785 122.335 394.66 122.835C394.41 123.46 393.91 123.585 393.41 123.335Z" fill="white"/>
<path d="M403.533 129.208L398.159 126.084C397.659 125.834 397.409 125.084 397.534 124.584C397.659 124.084 398.284 123.834 398.784 124.084L404.158 127.208C404.658 127.458 404.908 128.208 404.783 128.708C404.533 129.333 404.033 129.458 403.533 129.208Z" fill="white"/>
<path d="M408.532 132.082L408.407 131.957C407.907 131.707 407.657 130.957 407.782 130.457C407.907 129.957 408.532 129.708 409.032 129.957L409.157 130.082C409.657 130.332 409.907 131.082 409.782 131.582C409.657 132.207 409.032 132.457 408.532 132.082Z" fill="#F8359E"/>
<path d="M133.22 194.561C129.845 194.561 126.471 193.687 123.472 191.937L87.73 171.319C86.2303 170.444 85.2306 168.82 85.2306 167.07C85.2306 165.321 86.1054 163.696 87.73 162.822L123.472 142.203C129.47 138.705 136.969 138.705 142.967 142.203L178.709 162.822C180.209 163.696 181.209 165.321 181.209 167.07C181.209 168.82 180.334 170.444 178.709 171.319L142.967 191.937C139.968 193.687 136.594 194.561 133.22 194.561ZM124.597 189.938C129.845 193.062 136.469 193.062 141.843 189.938L177.584 169.32C178.459 168.82 178.834 167.945 178.834 167.07C178.834 166.071 178.334 165.321 177.584 164.821L141.843 144.203C136.594 141.079 129.97 141.079 124.597 144.203L88.8547 164.821C87.9799 165.321 87.605 166.196 87.605 167.07C87.605 168.07 88.1049 168.82 88.8547 169.32L124.597 189.938Z" fill="url(#paint10_linear_127:2)"/>
<path opacity="0.6" d="M133.095 181.691C146.623 181.691 157.589 175.369 157.589 167.57C157.589 159.772 146.623 153.45 133.095 153.45C119.567 153.45 108.6 159.772 108.6 167.57C108.6 175.369 119.567 181.691 133.095 181.691Z" fill="#020230"/>
<path d="M169.461 66.4782H99.4773L105.976 142.203C105.976 146.452 108.725 150.576 114.349 153.825C125.471 160.198 143.467 160.198 154.59 153.825C160.089 150.576 162.963 146.452 162.963 142.203L169.461 66.4782Z" fill="url(#paint11_radial_127:2)"/>
<path opacity="0.4" d="M169.461 66.4782H99.4773L100.602 78.9742C102.227 80.9735 104.351 82.9728 107.101 84.8472C120.473 93.7193 142.468 95.3438 157.464 88.9709L155.09 144.328C154.965 146.702 154.215 149.076 152.59 150.951C150.341 153.575 145.967 156.699 137.594 158.573C143.717 158.198 149.716 156.574 154.465 153.825C159.964 150.576 162.838 146.452 162.838 142.203L168.087 81.4733L169.461 66.4782Z" fill="#06033E"/>
<path opacity="0.4" d="M134.469 86.5967C153.795 86.5967 169.461 77.5893 169.461 66.4782C169.461 55.3671 153.795 46.3598 134.469 46.3598C115.144 46.3598 99.4773 55.3671 99.4773 66.4782C99.4773 77.5893 115.144 86.5967 134.469 86.5967Z" fill="#06033E"/>
<path opacity="0.4" d="M134.469 76.7249C151.103 76.7249 164.587 68.9484 164.587 59.3556C164.587 49.7628 151.103 41.9863 134.469 41.9863C117.836 41.9863 104.351 49.7628 104.351 59.3556C104.351 68.9484 117.836 76.7249 134.469 76.7249Z" fill="#06033E"/>
<path d="M171.461 65.6035C171.461 65.4786 171.461 65.4786 171.461 65.4786L170.836 58.7308V58.8557C170.586 53.7324 166.962 48.6091 160.213 44.7354C145.967 36.4881 122.972 36.4881 108.85 44.7354C101.852 48.734 98.3526 53.9823 98.2276 59.2306L97.4778 65.1037C97.4778 65.2286 97.4778 65.4786 97.4778 65.6035V65.7285C97.1029 71.4766 100.727 77.3497 108.35 81.7233C122.847 90.0955 146.342 90.0955 160.713 81.7233C168.337 77.2247 171.961 71.3516 171.461 65.6035Z" fill="url(#paint12_linear_127:2)"/>
<path d="M134.469 76.7249C151.103 76.7249 164.587 68.9484 164.587 59.3556C164.587 49.7628 151.103 41.9863 134.469 41.9863C117.836 41.9863 104.351 49.7628 104.351 59.3556C104.351 68.9484 117.836 76.7249 134.469 76.7249Z" fill="url(#paint13_linear_127:2)"/>
<path d="M133.095 76.7249C149.728 76.7249 163.213 68.9484 163.213 59.3556C163.213 49.7628 149.728 41.9863 133.095 41.9863C116.461 41.9863 102.977 49.7628 102.977 59.3556C102.977 68.9484 116.461 76.7249 133.095 76.7249Z" fill="url(#paint14_linear_127:2)"/>
<path opacity="0.4" d="M116.723 49.7337C128.471 42.9859 147.591 42.9859 159.339 49.7337C159.464 49.8587 159.589 49.8587 159.714 49.9836C158.589 48.984 157.214 47.9843 155.714 47.1096C143.967 40.3618 124.847 40.3618 113.099 47.1096C101.477 53.8574 101.352 64.6039 112.724 71.4766C105.226 64.7288 106.601 55.6068 116.723 49.7337Z" fill="#06033E"/>
<path d="M113.224 50.1086C124.971 43.3608 144.092 43.3608 155.839 50.1086C161.088 53.1076 163.963 56.9814 164.587 60.8551C165.337 55.8567 162.463 50.8584 155.839 47.1096C144.092 40.3618 124.971 40.3618 113.224 47.1096C106.726 50.8584 103.726 55.9817 104.476 60.8551C105.101 56.9814 107.975 53.1076 113.224 50.1086Z" fill="url(#paint15_linear_127:2)"/>
<path d="M160.463 44.7354C146.217 36.3631 123.097 36.2381 108.85 44.2355C94.6034 52.2329 94.4785 65.7285 108.6 73.9758C122.722 82.3481 145.842 82.473 160.213 74.4756C174.46 66.4782 174.585 53.1076 160.463 44.7354ZM155.714 71.7265C151.84 73.9758 147.091 75.4753 141.968 76.2251L141.468 74.4756C141.218 73.7259 140.593 73.226 139.843 73.226H128.971C128.221 73.226 127.596 73.7259 127.346 74.4756L126.846 76.2251C121.847 75.4753 117.098 73.9758 113.099 71.7265C101.352 64.9787 101.352 53.9823 113.099 47.1096C124.847 40.3618 143.967 40.3618 155.714 47.1096C167.587 53.8574 167.587 64.8538 155.714 71.7265Z" fill="url(#paint16_radial_127:2)"/>
<path d="M155.714 45.86C143.967 39.1122 124.847 39.1122 113.099 45.86C106.976 49.3588 103.976 54.1073 104.351 58.7308C104.601 54.4822 107.6 50.3585 113.099 47.1096C124.847 40.3618 143.967 40.3618 155.714 47.1096C161.338 50.3585 164.213 54.4822 164.462 58.7308C164.837 54.1073 161.963 49.3588 155.714 45.86Z" fill="white"/>
<path d="M160.088 73.226C145.717 81.3484 122.722 81.0985 108.475 72.7262C101.727 68.7275 98.2276 63.6042 97.9776 58.4809C97.7277 63.9791 101.227 69.7272 108.475 73.9758C122.597 82.3481 145.717 82.473 160.088 74.4756C167.587 70.227 171.211 64.6039 170.836 58.8557C170.711 64.104 167.087 69.3523 160.088 73.226Z" fill="white"/>
<path d="M137.719 77.0998H131.22C130.72 77.0998 130.345 76.7249 130.345 76.2251C130.345 75.7252 130.72 75.3503 131.22 75.3503H137.719C138.218 75.3503 138.593 75.7252 138.593 76.2251V76.35C138.468 76.7249 138.218 77.0998 137.719 77.0998Z" fill="#0C0A78"/>
<path d="M137.719 75.3503H131.22C130.72 75.3503 130.345 75.7252 130.345 76.2251V76.35C130.345 76.475 130.345 76.475 130.345 76.5999C130.47 76.2251 130.72 75.9751 131.095 75.9751H137.594C137.969 75.9751 138.218 76.2251 138.343 76.5999C138.343 76.475 138.343 76.475 138.343 76.35V76.2251C138.468 75.7252 138.218 75.3503 137.719 75.3503Z" fill="url(#paint17_linear_127:2)"/>
<path d="M135.469 134.456C134.719 137.455 131.595 139.204 128.596 138.455C125.596 137.705 123.847 134.581 124.597 131.582C125.346 128.583 128.221 127.708 131.22 128.583C134.219 129.333 136.219 131.457 135.469 134.456Z" fill="#E8975B"/>
<path d="M139.843 128.583C138.718 129.708 137.219 129.583 136.344 128.583C135.344 127.583 135.219 126.209 136.344 125.084C137.469 123.959 139.593 123.46 140.593 124.459C141.593 125.334 140.968 127.458 139.843 128.583Z" fill="#E8975B"/>
<path d="M133.969 123.834C133.719 125.334 132.47 126.084 131.095 125.834C129.72 125.584 128.846 124.459 129.096 122.96C129.346 121.46 130.845 119.711 132.095 119.961C133.595 120.211 134.344 122.335 133.969 123.834Z" fill="#E8975B"/>
<path d="M126.846 123.21C127.471 124.709 126.721 125.959 125.471 126.459C124.222 126.958 122.847 126.584 122.222 125.084C121.597 123.585 121.972 121.46 123.222 120.96C124.472 120.336 126.221 121.71 126.846 123.21Z" fill="#E8975B"/>
<path opacity="0.5" d="M136.719 76.2251C136.719 76.2251 156.214 69.7272 148.341 47.2345C140.468 24.7419 124.971 17.9941 131.22 0C131.22 0 121.472 14.4953 130.595 34.2388C139.718 53.8574 141.718 51.6081 141.593 61.105C141.468 72.2264 132.47 76.2251 132.47 76.2251H136.719Z" fill="white"/>
</g>
<defs>
<linearGradient id="paint0_linear_127:2" x1="507.227" y1="312.755" x2="547.982" y2="312.755" gradientUnits="userSpaceOnUse">
<stop stop-color="#E39A65"/>
<stop offset="1" stop-color="#E95F8D"/>
</linearGradient>
<linearGradient id="paint1_linear_127:2" x1="451.425" y1="256.907" x2="519.883" y2="256.907" gradientUnits="userSpaceOnUse">
<stop stop-color="#E39A65"/>
<stop offset="1" stop-color="#E95F8D"/>
</linearGradient>
<linearGradient id="paint2_linear_127:2" x1="0" y1="279.84" x2="68.4573" y2="279.84" gradientUnits="userSpaceOnUse">
<stop stop-color="#E39A65"/>
<stop offset="1" stop-color="#E95F8D"/>
</linearGradient>
<linearGradient id="paint3_linear_127:2" x1="79.6998" y1="275.449" x2="445.064" y2="275.449" gradientUnits="userSpaceOnUse">
<stop stop-color="#E39A65"/>
<stop offset="1" stop-color="#E95F8D"/>
</linearGradient>
<radialGradient id="paint4_radial_127:2" cx="0" cy="0" r="1" gradientUnits="userSpaceOnUse" gradientTransform="translate(281.512 4.96924) scale(279.056 279.029)">
<stop stop-color="#E39A65"/>
<stop offset="0.4742" stop-color="#A92FFB"/>
<stop offset="0.5947" stop-color="#891CFB"/>
<stop offset="0.7421" stop-color="#6507FA"/>
<stop offset="0.8016" stop-color="#0D0C6F"/>
</radialGradient>
<radialGradient id="paint5_radial_127:2" cx="0" cy="0" r="1" gradientUnits="userSpaceOnUse" gradientTransform="translate(110.835 229.05) scale(305.146 305.116)">
<stop stop-color="#E39A65"/>
<stop offset="0.4742" stop-color="#A92FFB"/>
<stop offset="0.5679" stop-color="#891CFB"/>
<stop offset="0.6825" stop-color="#6507FA"/>
<stop offset="0.7381" stop-color="#0D0C6F"/>
</radialGradient>
<radialGradient id="paint6_radial_127:2" cx="0" cy="0" r="1" gradientUnits="userSpaceOnUse" gradientTransform="translate(138.9 167.808) scale(273.638 273.61)">
<stop stop-color="#E39A65"/>
<stop offset="0.4742" stop-color="#A92FFB"/>
<stop offset="0.5875" stop-color="#891CFB"/>
<stop offset="0.7262" stop-color="#6507FA"/>
<stop offset="1" stop-color="#3919BB"/>
</radialGradient>
<radialGradient id="paint7_radial_127:2" cx="0" cy="0" r="1" gradientUnits="userSpaceOnUse" gradientTransform="translate(207.069 63.1721) scale(279.112 279.085)">
<stop stop-color="#E39A65"/>
<stop offset="0.4742" stop-color="#A92FFB"/>
<stop offset="0.5875" stop-color="#891CFB"/>
<stop offset="0.7262" stop-color="#6507FA"/>
<stop offset="1" stop-color="#3919BB"/>
</radialGradient>
<linearGradient id="paint8_linear_127:2" x1="237.747" y1="136.432" x2="461.404" y2="136.432" gradientUnits="userSpaceOnUse">
<stop stop-color="#3919BB"/>
<stop offset="1" stop-color="#6507FA"/>
</linearGradient>
<radialGradient id="paint9_radial_127:2" cx="0" cy="0" r="1" gradientUnits="userSpaceOnUse" gradientTransform="translate(105.177 3.57493) scale(434.71 434.667)">
<stop stop-color="#E39A65"/>
<stop offset="0.4742" stop-color="#A92FFB"/>
<stop offset="0.5875" stop-color="#891CFB"/>
<stop offset="0.7262" stop-color="#6507FA"/>
<stop offset="1" stop-color="#3919BB"/>
</radialGradient>
<linearGradient id="paint10_linear_127:2" x1="85.2613" y1="167.024" x2="181.209" y2="167.024" gradientUnits="userSpaceOnUse">
<stop stop-color="#E39A65"/>
<stop offset="1" stop-color="#E95F8D"/>
</linearGradient>
<radialGradient id="paint11_radial_127:2" cx="0" cy="0" r="1" gradientUnits="userSpaceOnUse" gradientTransform="translate(93.7676 88.7678) scale(206.639 206.619)">
<stop stop-color="#E39A65"/>
<stop offset="0.1528" stop-color="#A92FFB"/>
<stop offset="0.4087" stop-color="#3919BB"/>
<stop offset="0.9311" stop-color="#3919BB"/>
</radialGradient>
<linearGradient id="paint12_linear_127:2" x1="97.4248" y1="63.1719" x2="171.545" y2="63.1719" gradientUnits="userSpaceOnUse">
<stop stop-color="#E39A65"/>
<stop offset="0.252" stop-color="#A92FFB"/>
<stop offset="0.5556" stop-color="#3919BB"/>
</linearGradient>
<linearGradient id="paint13_linear_127:2" x1="104.375" y1="59.4062" x2="164.591" y2="59.4062" gradientUnits="userSpaceOnUse">
<stop stop-color="#4F1FEC"/>
<stop offset="1" stop-color="#A92FFB"/>
</linearGradient>
<linearGradient id="paint14_linear_127:2" x1="102.946" y1="59.4062" x2="163.163" y2="59.4062" gradientUnits="userSpaceOnUse">
<stop stop-color="#4F1FEC"/>
<stop offset="1" stop-color="#A92FFB"/>
</linearGradient>
<linearGradient id="paint15_linear_127:2" x1="104.38" y1="51.47" x2="180.302" y2="51.47" gradientUnits="userSpaceOnUse">
<stop stop-color="#131060"/>
<stop offset="0.1857" stop-color="#141062"/>
<stop offset="0.2823" stop-color="#19106A"/>
<stop offset="0.3584" stop-color="#221078"/>
<stop offset="0.4238" stop-color="#2E0F8B"/>
<stop offset="0.4823" stop-color="#3E0FA3"/>
<stop offset="0.5359" stop-color="#510EC2"/>
<stop offset="0.5847" stop-color="#680DE5"/>
<stop offset="0.6071" stop-color="#740DF8"/>
<stop offset="0.6179" stop-color="#7A14F0"/>
<stop offset="0.6826" stop-color="#9B3CC3"/>
<stop offset="0.7477" stop-color="#B75D9D"/>
<stop offset="0.8123" stop-color="#CC7680"/>
<stop offset="0.8762" stop-color="#DC886C"/>
<stop offset="0.9391" stop-color="#E5935F"/>
<stop offset="1" stop-color="#E8975B"/>
</linearGradient>
<radialGradient id="paint16_radial_127:2" cx="0" cy="0" r="1" gradientUnits="userSpaceOnUse" gradientTransform="translate(88.1735 42.2037) scale(135.175 135.161)">
<stop stop-color="#E39A65"/>
<stop offset="0.252" stop-color="#A92FFB"/>
<stop offset="0.7357" stop-color="#3919BB"/>
</radialGradient>
<linearGradient id="paint17_linear_127:2" x1="129.718" y1="75.9709" x2="140.221" y2="75.9709" gradientUnits="userSpaceOnUse">
<stop stop-color="#131060"/>
<stop offset="0.1857" stop-color="#141062"/>
<stop offset="0.2823" stop-color="#19106A"/>
<stop offset="0.3584" stop-color="#221078"/>
<stop offset="0.4238" stop-color="#2E0F8B"/>
<stop offset="0.4823" stop-color="#3E0FA3"/>
<stop offset="0.5359" stop-color="#510EC2"/>
<stop offset="0.5847" stop-color="#680DE5"/>
<stop offset="0.6071" stop-color="#740DF8"/>
<stop offset="0.6179" stop-color="#7A14F0"/>
<stop offset="0.6826" stop-color="#9B3CC3"/>
<stop offset="0.7477" stop-color="#B75D9D"/>
<stop offset="0.8123" stop-color="#CC7680"/>
<stop offset="0.8762" stop-color="#DC886C"/>
<stop offset="0.9391" stop-color="#E5935F"/>
<stop offset="1" stop-color="#E8975B"/>
</linearGradient>
<clipPath id="clip0_127:2">
<rect width="548" height="382" fill="white"/>
</clipPath>
</defs>
</svg>
