<svg width="28" height="29" viewBox="0 0 28 29" fill="none" xmlns="http://www.w3.org/2000/svg">
<path fill-rule="evenodd" clip-rule="evenodd" d="M15.8005 19.2719C17.4241 19.2719 18.7456 20.584 18.7456 22.1968V26.3448C18.7456 26.6914 19.0234 26.9691 19.3794 26.9772H21.9497C23.9751 26.9772 25.6216 25.3509 25.6216 23.3524V11.5881C25.6122 10.9003 25.2845 10.253 24.7222 9.82287L15.8315 2.73241C14.6381 1.78711 12.9686 1.78711 11.7711 2.73511L2.9411 9.82017C2.35719 10.2638 2.0295 10.9111 2.02276 11.611V23.3524C2.02276 25.3509 3.66929 26.9772 5.69475 26.9772H8.28928C8.65472 26.9772 8.95139 26.6873 8.95139 26.3313C8.95139 26.2531 8.96083 26.1749 8.97702 26.1007V22.1968C8.97702 20.5934 10.2905 19.2827 11.9019 19.2719H15.8005ZM21.9497 29H19.3551C17.8691 28.9649 16.7228 27.7985 16.7228 26.3448V22.1968C16.7228 21.6992 16.3089 21.2946 15.8005 21.2946H11.9087C11.4111 21.2973 10.9998 21.7032 10.9998 22.1968V26.3313C10.9998 26.4324 10.9863 26.5295 10.958 26.6212C10.8123 27.9563 9.6715 29 8.28928 29H5.69475C2.55407 29 0 26.4662 0 23.3524V11.6016C0.0134851 10.2611 0.631102 9.03399 1.69777 8.22624L10.5103 1.15331C12.4508 -0.383987 15.1545 -0.383987 17.091 1.15061L25.9669 8.23028C27.0093 9.02455 27.6269 10.249 27.6444 11.5732V23.3524C27.6444 26.4662 25.0903 29 21.9497 29Z" fill="#35A3E6"/>
</svg>
