<svg width="22" height="29" viewBox="0 0 22 29" fill="none" xmlns="http://www.w3.org/2000/svg">
<path fill-rule="evenodd" clip-rule="evenodd" d="M11 27.3278C6.14557 27.3278 2 26.5724 2 23.5471C2 20.5217 6.11927 17.7289 11 17.7289C15.8544 17.7289 20 20.4947 20 23.52C20 26.5441 15.8807 27.3278 11 27.3278Z" stroke="#35A3E6" stroke-width="2.5" stroke-linecap="round" stroke-linejoin="round"/>
<path fill-rule="evenodd" clip-rule="evenodd" d="M10.9905 13.5366C14.1761 13.5366 16.7582 10.9546 16.7582 7.76889C16.7582 4.58321 14.1761 2 10.9905 2C7.80478 2 5.22153 4.58321 5.22153 7.76889C5.21081 10.9438 7.77489 13.5258 10.9498 13.5366C10.9642 13.5366 10.9773 13.5366 10.9905 13.5366Z" stroke="#35A3E6" stroke-width="2.5" stroke-linecap="round" stroke-linejoin="round"/>
</svg>
